<svg width="40" height="40" viewBox="0 0 40 40" fill="none" xmlns="http://www.w3.org/2000/svg">
<g clip-path="url(#clip0_282_5505)">
<path d="M19.9987 18.3333C22.2088 18.3333 24.3285 19.2112 25.8913 20.774C27.4541 22.3368 28.332 24.4564 28.332 26.6666V36.6666H24.9987V26.6666C24.9988 25.3912 24.5115 24.1641 23.6366 23.2362C22.7616 22.3082 21.5652 21.7497 20.292 21.6749L19.9987 21.6666C18.7233 21.6665 17.4962 22.1538 16.5683 23.0287C15.6404 23.9037 15.0819 25.1001 15.007 26.3733L14.9987 26.6666V36.6666H11.6654V26.6666C11.6654 24.4564 12.5433 22.3368 14.1061 20.774C15.6689 19.2112 17.7886 18.3333 19.9987 18.3333ZM9.16536 23.3333C9.63036 23.3333 10.082 23.3883 10.5154 23.4899C10.2304 24.3383 10.0616 25.2213 10.0137 26.1149L9.9987 26.6666V26.8099C9.80712 26.7414 9.60785 26.6966 9.40536 26.6766L9.16536 26.6666C8.54389 26.6666 7.94471 26.8981 7.48467 27.316C7.02462 27.7338 6.73669 28.308 6.67703 28.9266L6.66536 29.1666V36.6666H3.33203V29.1666C3.33203 27.6195 3.94661 26.1358 5.04058 25.0418C6.13454 23.9478 7.61827 23.3333 9.16536 23.3333ZM30.832 23.3333C32.3791 23.3333 33.8629 23.9478 34.9568 25.0418C36.0508 26.1358 36.6654 27.6195 36.6654 29.1666V36.6666H33.332V29.1666C33.332 28.5451 33.1005 27.9459 32.6827 27.4859C32.2648 27.0258 31.6906 26.7379 31.072 26.6783L30.832 26.6666C30.5404 26.6666 30.2604 26.7166 29.9987 26.8083V26.6666C29.9987 25.5566 29.8187 24.4899 29.4837 23.4933C29.9154 23.3883 30.367 23.3333 30.832 23.3333ZM9.16536 13.3333C10.2704 13.3333 11.3302 13.7722 12.1116 14.5536C12.893 15.335 13.332 16.3949 13.332 17.4999C13.332 18.605 12.893 19.6648 12.1116 20.4462C11.3302 21.2276 10.2704 21.6666 9.16536 21.6666C8.0603 21.6666 7.00049 21.2276 6.21909 20.4462C5.43768 19.6648 4.9987 18.605 4.9987 17.4999C4.9987 16.3949 5.43768 15.335 6.21909 14.5536C7.00049 13.7722 8.0603 13.3333 9.16536 13.3333ZM30.832 13.3333C31.9371 13.3333 32.9969 13.7722 33.7783 14.5536C34.5597 15.335 34.9987 16.3949 34.9987 17.4999C34.9987 18.605 34.5597 19.6648 33.7783 20.4462C32.9969 21.2276 31.9371 21.6666 30.832 21.6666C29.727 21.6666 28.6672 21.2276 27.8858 20.4462C27.1044 19.6648 26.6654 18.605 26.6654 17.4999C26.6654 16.3949 27.1044 15.335 27.8858 14.5536C28.6672 13.7722 29.727 13.3333 30.832 13.3333ZM9.16536 16.6666C8.94435 16.6666 8.73239 16.7544 8.57611 16.9107C8.41983 17.0669 8.33203 17.2789 8.33203 17.4999C8.33203 17.7209 8.41983 17.9329 8.57611 18.0892C8.73239 18.2455 8.94435 18.3333 9.16536 18.3333C9.38638 18.3333 9.59834 18.2455 9.75462 18.0892C9.9109 17.9329 9.9987 17.7209 9.9987 17.4999C9.9987 17.2789 9.9109 17.0669 9.75462 16.9107C9.59834 16.7544 9.38638 16.6666 9.16536 16.6666ZM30.832 16.6666C30.611 16.6666 30.3991 16.7544 30.2428 16.9107C30.0865 17.0669 29.9987 17.2789 29.9987 17.4999C29.9987 17.7209 30.0865 17.9329 30.2428 18.0892C30.3991 18.2455 30.611 18.3333 30.832 18.3333C31.053 18.3333 31.265 18.2455 31.4213 18.0892C31.5776 17.9329 31.6654 17.7209 31.6654 17.4999C31.6654 17.2789 31.5776 17.0669 31.4213 16.9107C31.265 16.7544 31.053 16.6666 30.832 16.6666ZM19.9987 3.33325C21.7668 3.33325 23.4625 4.03563 24.7127 5.28587C25.963 6.53612 26.6654 8.23181 26.6654 9.99992C26.6654 11.768 25.963 13.4637 24.7127 14.714C23.4625 15.9642 21.7668 16.6666 19.9987 16.6666C18.2306 16.6666 16.5349 15.9642 15.2847 14.714C14.0344 13.4637 13.332 11.768 13.332 9.99992C13.332 8.23181 14.0344 6.53612 15.2847 5.28587C16.5349 4.03563 18.2306 3.33325 19.9987 3.33325ZM19.9987 6.66659C19.1146 6.66659 18.2668 7.01777 17.6417 7.6429C17.0166 8.26802 16.6654 9.11586 16.6654 9.99992C16.6654 10.884 17.0166 11.7318 17.6417 12.3569C18.2668 12.9821 19.1146 13.3333 19.9987 13.3333C20.8828 13.3333 21.7306 12.9821 22.3557 12.3569C22.9808 11.7318 23.332 10.884 23.332 9.99992C23.332 9.11586 22.9808 8.26802 22.3557 7.6429C21.7306 7.01777 20.8828 6.66659 19.9987 6.66659Z" fill="#333333"/>
</g>
<defs>
<clipPath id="clip0_282_5505">
<rect width="40" height="40" fill="white"/>
</clipPath>
</defs>
</svg>
