<svg width="40" height="40" viewBox="0 0 40 40" fill="none" xmlns="http://www.w3.org/2000/svg">
<g clip-path="url(#clip0_282_5509)">
<path d="M28.332 33.3333H11.6654V35C11.6654 35.442 11.4898 35.866 11.1772 36.1785C10.8646 36.4911 10.4407 36.6667 9.9987 36.6667H8.33203C7.89 36.6667 7.46608 36.4911 7.15352 36.1785C6.84096 35.866 6.66536 35.442 6.66536 35V33.3333H4.9987V20H3.33203V13.3333H4.9987V8.33333C4.9987 7.44928 5.34989 6.60143 5.97501 5.97631C6.60013 5.35119 7.44798 5 8.33203 5H31.6654C32.5494 5 33.3973 5.35119 34.0224 5.97631C34.6475 6.60143 34.9987 7.44928 34.9987 8.33333V13.3333H36.6654V20H34.9987V33.3333H33.332V35C33.332 35.442 33.1564 35.866 32.8439 36.1785C32.5313 36.4911 32.1074 36.6667 31.6654 36.6667H29.9987C29.5567 36.6667 29.1327 36.4911 28.8202 36.1785C28.5076 35.866 28.332 35.442 28.332 35V33.3333ZM31.6654 20V8.33333H8.33203V20H31.6654ZM31.6654 23.3333H8.33203V30H31.6654V23.3333ZM9.9987 25H16.6654V28.3333H9.9987V25ZM23.332 25H29.9987V28.3333H23.332V25Z" fill="#333333"/>
</g>
<defs>
<clipPath id="clip0_282_5509">
<rect width="40" height="40" fill="white"/>
</clipPath>
</defs>
</svg>
