<svg width="40" height="40" viewBox="0 0 40 40" fill="none" xmlns="http://www.w3.org/2000/svg">
<g clip-path="url(#clip0_282_5507)">
<path d="M6.66797 36.6667C6.66797 33.1305 8.07273 29.7391 10.5732 27.2387C13.0737 24.7382 16.4651 23.3334 20.0013 23.3334C23.5375 23.3334 26.9289 24.7382 29.4294 27.2387C31.9299 29.7391 33.3346 33.1305 33.3346 36.6667H30.0013C30.0013 34.0146 28.9477 31.471 27.0724 29.5957C25.197 27.7203 22.6535 26.6667 20.0013 26.6667C17.3491 26.6667 14.8056 27.7203 12.9302 29.5957C11.0549 31.471 10.0013 34.0146 10.0013 36.6667H6.66797ZM20.0013 21.6667C14.4763 21.6667 10.0013 17.1917 10.0013 11.6667C10.0013 6.14175 14.4763 1.66675 20.0013 1.66675C25.5263 1.66675 30.0013 6.14175 30.0013 11.6667C30.0013 17.1917 25.5263 21.6667 20.0013 21.6667ZM20.0013 18.3334C23.6846 18.3334 26.668 15.3501 26.668 11.6667C26.668 7.98341 23.6846 5.00008 20.0013 5.00008C16.318 5.00008 13.3346 7.98341 13.3346 11.6667C13.3346 15.3501 16.318 18.3334 20.0013 18.3334Z" fill="#333333"/>
</g>
<defs>
<clipPath id="clip0_282_5507">
<rect width="40" height="40" fill="white"/>
</clipPath>
</defs>
</svg>
