<svg width="42" height="42" viewBox="0 0 42 42" fill="none" xmlns="http://www.w3.org/2000/svg">
<g clip-path="url(#clip0_101_6)">
<path d="M31.0824 11.8587C32.6915 11.8587 33.9959 10.5472 33.9959 8.92937C33.9959 7.31152 32.6915 6 31.0824 6C29.4734 6 28.1689 7.31152 28.1689 8.92937C28.1689 10.5472 29.4734 11.8587 31.0824 11.8587Z" fill="#FF7B27"/>
<path d="M33.7566 14.6997C32.8809 14.4775 31.9619 14.3604 31.016 14.3604C28.0797 14.3604 25.4146 15.4967 23.4444 17.3452V17.3439L22.6645 18.0426V18.044C22.4796 18.188 22.3136 18.3267 22.1773 18.4586C20.133 20.4337 13.5953 26.9779 11.5847 28.988C11.3108 29.2617 11.037 29.5356 10.7636 29.8097C9.57631 31 7.65434 31.0095 6.46334 29.823C5.26527 28.6296 5.26476 26.6829 6.46221 25.4888L12.8077 19.1389C13.8738 18.0721 13.8957 16.3501 12.8571 15.2565V15.2565C11.7841 14.1268 9.99256 14.0984 8.88431 15.1936L2.55183 21.4516C-0.804106 24.7329 -0.856864 30.1354 2.43435 33.4823C5.77075 36.8751 11.2333 36.8296 14.5265 33.3944C16.2499 31.5967 18.6601 29.1134 20.0142 27.7228C20.1019 27.6326 20.187 27.5451 20.2747 27.4549H20.276C21.3367 32.3381 25.7411 36.0001 31.0146 36.0001C37.0816 36.0001 42.0002 31.156 42.0002 25.1796C42.0002 20.1362 38.4971 15.8993 33.7566 14.6997ZM30.8554 30.7817C27.826 30.7817 25.3687 28.334 25.3687 25.3156C25.3687 22.2971 27.8246 19.8494 30.8554 19.8494C33.8862 19.8494 36.3421 22.2971 36.3421 25.3156C36.3421 28.334 33.8862 30.7817 30.8554 30.7817Z" fill="#303030"/>
</g>
<defs>
<clipPath id="clip0_101_6">
<rect width="42" height="42" fill="white"/>
</clipPath>
</defs>
</svg>
