<svg width="75" height="11" viewBox="0 0 75 11" fill="none" xmlns="http://www.w3.org/2000/svg">
<g clip-path="url(#clip0_282_6140)">
<path d="M65.9983 8.79907C65.9983 9.40655 66.4908 9.89907 67.0984 9.89907C69.6648 9.89907 72.2314 9.89907 74.798 9.89907C74.798 10.2657 74.798 10.6324 74.798 10.9991C72.2314 10.9991 69.6648 10.9991 67.0984 10.9991C65.8834 10.9991 64.8984 10.0141 64.8984 8.79907C64.8984 7.51572 64.8984 6.23247 64.8984 4.94922C68.1983 4.94922 71.4981 4.94922 74.798 4.94922C74.798 5.31582 74.798 5.68252 74.798 6.04922C71.8648 6.04922 68.9315 6.04922 65.9983 6.04922C65.9983 6.96587 65.9983 7.88252 65.9983 8.79907Z" fill="#AAAAAA"/>
<path d="M57.7475 8.24976C57.7475 6.1426 57.7475 4.03553 57.7475 1.92837C57.7475 1.47281 57.3782 1.1034 56.9225 1.1034C56.4669 1.1034 56.0976 1.47281 56.0976 1.92837C56.0976 4.03553 56.0976 6.1426 56.0976 8.24976C56.0976 9.76845 54.8664 10.9997 53.3477 10.9997C51.8289 10.9997 50.5977 9.76855 50.5977 8.24976C50.5977 5.49981 50.5977 2.74995 50.5977 0C50.9643 0 51.331 0 51.6976 0C51.6976 2.74995 51.6976 5.49981 51.6976 8.24976C51.6976 9.16107 52.4363 9.89971 53.3477 9.89971C54.2589 9.89971 54.9977 9.16107 54.9977 8.24976C54.9977 6.14153 54.9977 4.0332 54.9977 1.92498C54.9978 0.861937 55.8595 0 56.9225 0C57.9856 0 58.8474 0.861937 58.8474 1.92498C58.8474 4.0332 58.8474 6.14153 58.8474 8.24976C58.8474 9.16107 59.5861 9.89971 60.4974 9.89971C61.4088 9.89971 62.1473 9.16107 62.1473 8.24976C62.1473 6.23311 62.1473 4.21655 62.1473 2.2C62.1473 0.984946 63.1324 0 64.3473 0C67.8306 0 71.3137 0 74.797 0C74.797 0.366699 74.797 0.733398 74.797 1.1C71.3137 1.1 67.8306 1.1 64.3473 1.1C63.7398 1.1 63.2474 1.59252 63.2474 2.2C63.2474 4.21655 63.2474 6.23311 63.2474 8.24976C63.2474 9.76845 62.0163 10.9997 60.4974 10.9997C58.9788 10.9997 57.7475 9.76845 57.7475 8.24976Z" fill="#AAAAAA"/>
<path d="M40.1502 1.1C41.6169 1.1 43.0835 1.1 44.5501 1.1C46.3725 1.1 47.8501 2.57737 47.8501 4.3999C47.8501 5.1333 47.8501 5.8665 47.8501 6.5999C47.8501 8.42234 46.3726 9.89981 44.5501 9.89981C42.1668 9.89981 39.7835 9.89981 37.4003 9.89981C36.7928 9.89981 36.3004 9.40728 36.3004 8.79981C36.3004 7.3332 36.3004 5.8666 36.3004 4.4C36.3005 1.96999 34.3305 0 31.9006 0C31.1672 0 30.434 0 29.7006 0C27.2707 0 25.3008 1.96999 25.3008 4.39981C25.3008 6.59981 25.3008 8.79961 25.3008 10.9996C25.6674 10.9996 26.0341 10.9996 26.4007 10.9996C26.4007 9.34966 26.4007 7.69961 26.4007 6.04985C28.7839 6.04985 31.1672 6.04985 33.5504 6.04985C33.5504 5.68316 33.5504 5.31646 33.5504 4.94985C31.1672 4.94985 28.7839 4.94985 26.4007 4.94985C26.4007 4.7665 26.4007 4.58316 26.4007 4.39981C26.4007 2.57737 27.8781 1.0999 29.7006 1.0999C30.434 1.0999 31.1672 1.0999 31.9006 1.0999C33.723 1.0999 35.2005 2.57727 35.2005 4.39981C35.2005 5.86641 35.2005 7.33301 35.2005 8.79961C35.2005 10.0146 36.1854 10.9996 37.4004 10.9996C39.7836 10.9996 42.1669 10.9996 44.5502 10.9996C46.9801 10.9996 48.9501 9.02962 48.9501 6.59981C48.9501 5.86641 48.9501 5.1332 48.9501 4.39981C48.95 1.96999 46.9801 0 44.5502 0C43.0835 0 41.617 0 40.1503 0C38.9355 0 37.9503 0.984946 37.9503 2.2C37.9503 4.21655 37.9503 6.23311 37.9503 8.24976C38.3171 8.24976 38.6838 8.24976 39.0504 8.24976C39.0504 6.23311 39.0504 4.21655 39.0504 2.2C39.0504 1.59252 39.5429 1.1 40.1502 1.1Z" fill="#AAAAAA"/>
<path d="M12.6495 4.39981C12.6495 1.96999 14.6194 0 17.0494 0C17.7827 0 18.5159 0 19.2493 0C21.6792 0 23.6491 1.96999 23.6491 4.39981C23.6491 5.1332 23.6491 5.86641 23.6491 6.59981C23.6491 9.02972 21.6791 10.9996 19.2493 10.9996C16.8476 10.9996 14.4458 10.9996 12.0442 10.9996C10.8773 10.9996 9.75817 10.5361 8.9331 9.71093C7.34611 8.12393 5.75902 6.53694 4.17203 4.94985C5.43947 4.94985 6.7071 4.94985 7.97464 4.94985C9.03767 4.94985 9.89961 4.08801 9.89961 3.02488C9.89961 1.96174 9.03767 1.0999 7.97464 1.0999C6.04966 1.0999 4.12478 1.0999 2.1999 1.0999C1.59233 1.0999 1.0999 1.59242 1.0999 2.1999C1.0999 5.13311 1.0999 8.06641 1.0999 10.9996C0.733301 10.9996 0.366602 10.9996 0 10.9996C0 8.06641 0 5.1332 0 2.2C0 0.984946 0.984849 0 2.1999 0C4.13245 0 6.06508 0 7.99763 0C9.66824 0 11.0226 1.35436 11.0226 3.02498C11.0226 4.69559 9.66824 6.04985 7.99763 6.04985C7.60755 6.04985 7.21757 6.04985 6.82739 6.04985C7.78857 7.01084 8.74955 7.97202 9.71083 8.9332C10.3297 9.55202 11.169 9.89971 12.0442 9.89971C14.4458 9.89971 16.8476 9.89971 19.2493 9.89971C21.0717 9.89971 22.5492 8.42234 22.5492 6.59981C22.5492 5.86641 22.5492 5.1332 22.5492 4.39981C22.5492 2.57737 21.0718 1.0999 19.2493 1.0999C18.517 1.0999 17.7849 1.0999 17.0526 1.0999C15.2302 1.0999 13.7527 2.57727 13.7527 4.39981C13.7517 5.68316 13.7506 6.96641 13.7497 8.24976C13.3829 8.24976 13.0162 8.24976 12.6494 8.24976C12.6495 6.96651 12.6495 5.68316 12.6495 4.39981Z" fill="#AAAAAA"/>
</g>
<defs>
<clipPath id="clip0_282_6140">
<rect width="74.7969" height="11" fill="white"/>
</clipPath>
</defs>
</svg>
