<svg width="116" height="24" viewBox="0 0 116 24" fill="none" xmlns="http://www.w3.org/2000/svg">
<path d="M5 9.15527e-06H0V24H15V19H5V9.15527e-06Z" fill="#333333"/>
<path d="M24.0498 9.15527e-06H29.0498V24H24.0498V9.15527e-06Z" fill="#333333"/>
<path d="M60.4496 12C60.4496 5.37259 55.077 9.15527e-06 48.4496 9.15527e-06H37.4496V7.76001H42.4496V5.00001H48.4496C52.3156 5.00001 55.4496 8.13401 55.4496 12C55.4496 15.866 52.3156 19 48.4496 19H37.4496V24H48.4496C55.077 24 60.4496 18.6274 60.4496 12Z" fill="#333333"/>
<path d="M67.1495 7.80001H72.1495V5.00001H79.1495C80.8063 5.00001 82.1495 6.34315 82.1495 8C82.1495 9.65686 80.8063 11 79.1495 11H67.1495V24H72.1495V16H74.9956L81.1495 24H87.1495L80.8554 15.8177C84.4541 15.0361 87.1495 11.8328 87.1495 8C87.1495 3.58173 83.5678 9.15527e-06 79.1495 9.15527e-06H67.1495V7.80001Z" fill="#333333"/>
<path d="M111.156 14.6004C110.124 17.1788 107.602 19 104.655 19C101.708 19 99.1865 17.1788 98.1542 14.6004L93.5106 16.4579C95.2802 20.8779 99.6032 24 104.655 24C109.707 24 114.03 20.8779 115.8 16.4579L111.156 14.6004Z" fill="#333333"/>
<path d="M111.156 9.39957C110.124 6.82121 107.602 5 104.655 5C101.708 5 99.1865 6.82121 98.1542 9.39957L93.5106 7.54213C95.2802 3.12208 99.6032 0 104.655 0C109.707 0 114.03 3.12208 115.8 7.54213L111.156 9.39957Z" fill="#333333"/>
<path d="M107.138 12.08C107.138 13.4497 106.028 14.56 104.658 14.56C103.288 14.56 102.178 13.4497 102.178 12.08C102.178 10.7103 103.288 9.6 104.658 9.6C106.028 9.6 107.138 10.7103 107.138 12.08Z" fill="#333333"/>
</svg>
