<svg width="25" height="26" viewBox="0 0 25 26" fill="none" xmlns="http://www.w3.org/2000/svg">
<path d="M19.1162 15.8171C17.9979 18.6104 15.2661 20.5833 12.0734 20.5833C8.88074 20.5833 6.14889 18.6104 5.03059 15.8171L0 17.8294C1.91709 22.6177 6.60027 26 12.0734 26C17.5466 26 22.2297 22.6177 24.1468 17.8294L19.1162 15.8171Z" fill="#333333"/>
<path d="M19.1162 10.1829C17.9979 7.38965 15.2661 5.41667 12.0734 5.41667C8.88074 5.41667 6.14889 7.38965 5.03059 10.1829L0 8.17064C1.91709 3.38225 6.60027 0 12.0734 0C17.5466 0 22.2297 3.38225 24.1468 8.17064L19.1162 10.1829Z" fill="#333333"/>
<path d="M14.7631 13.0867C14.7631 14.5705 13.5603 15.7733 12.0765 15.7733C10.5927 15.7733 9.3898 14.5705 9.3898 13.0867C9.3898 11.6029 10.5927 10.4 12.0765 10.4C13.5603 10.4 14.7631 11.6029 14.7631 13.0867Z" fill="#333333"/>
</svg>
