<svg width="28" height="30" viewBox="0 0 28 30" fill="none" xmlns="http://www.w3.org/2000/svg">
<path d="M22.0572 18.2505C20.7668 21.4735 17.6147 23.75 13.9309 23.75C10.247 23.75 7.09487 21.4735 5.80452 18.2505L0 20.5723C2.21203 26.0974 7.61569 30 13.9309 30C20.246 30 25.6497 26.0974 27.8617 20.5723L22.0572 18.2505Z" fill="white"/>
<path d="M22.0572 11.7495C20.7668 8.52652 17.6147 6.25 13.9309 6.25C10.247 6.25 7.09487 8.52652 5.80452 11.7495L0 9.42766C2.21203 3.9026 7.61569 0 13.9309 0C20.246 0 25.6497 3.9026 27.8617 9.42766L22.0572 11.7495Z" fill="white"/>
<path d="M17.0344 15.1C17.0344 16.8121 15.6465 18.2 13.9344 18.2C12.2223 18.2 10.8344 16.8121 10.8344 15.1C10.8344 13.3879 12.2223 12 13.9344 12C15.6465 12 17.0344 13.3879 17.0344 15.1Z" fill="white"/>
</svg>
