<svg width="56" height="40" viewBox="0 0 56 40" fill="none" xmlns="http://www.w3.org/2000/svg">
<path d="M41.4472 7.81169C43.5926 7.81169 45.3319 6.06298 45.3319 3.90584C45.3319 1.74871 43.5926 0 41.4472 0C39.3017 0 37.5625 1.74871 37.5625 3.90584C37.5625 6.06298 39.3017 7.81169 41.4472 7.81169Z" fill="#FF7B27"/>
<path d="M45.0091 11.5993C43.8414 11.3031 42.6161 11.147 41.3549 11.147C37.4397 11.147 33.8863 12.662 31.2594 15.1268V15.125L30.2195 16.0566V16.0584C29.973 16.2505 29.7517 16.4354 29.5699 16.6113C26.8441 19.2448 18.1272 27.9704 15.4464 30.6505C15.0811 31.0155 14.7161 31.3806 14.3515 31.7462C12.7685 33.3332 10.2058 33.3458 8.61783 31.7639C7.02039 30.1726 7.01972 27.577 8.61632 25.9849L17.0771 17.5183C18.4985 16.0959 18.5277 13.7999 17.1429 12.3418C15.7123 10.8354 13.3235 10.7976 11.8458 12.2579L3.40246 20.602C-1.07215 24.977 -1.14249 32.1804 3.24581 36.643C7.69438 41.1668 14.9778 41.1061 19.3688 36.5257C21.6666 34.1288 24.8802 30.8178 26.6858 28.9636C26.8027 28.8433 26.9161 28.7266 27.033 28.6064H27.0348C28.449 35.1173 34.3217 40 41.353 40C49.4424 40 56.0005 33.5412 56.0005 25.5726C56.0005 18.8481 51.3297 13.1988 45.0091 11.5993ZM41.1407 33.0421C37.1015 33.0421 33.8251 29.7786 33.8251 25.7539C33.8251 21.7292 37.0997 18.4657 41.1407 18.4657C45.1818 18.4657 48.4564 21.7292 48.4564 25.7539C48.4564 29.7786 45.1818 33.0421 41.1407 33.0421Z" fill="#303030"/>
</svg>
