<svg width="100" height="100" viewBox="0 0 100 100" fill="none" xmlns="http://www.w3.org/2000/svg">
<g clip-path="url(#clip0_282_5994)">
<path d="M55.4452 44.5776C45.2526 34.385 45.2526 17.8599 55.4452 7.66736C65.5932 -2.48088 81.916 -2.56695 92.1652 7.47893C99.9062 15.0662 101.909 26.2609 98.1774 35.717C97.5528 37.2993 97.393 39.027 97.7117 40.6979L99.2673 48.8577C99.5648 50.4179 98.1958 51.787 96.6356 51.4895L88.476 49.9338C86.8101 49.6162 85.0866 49.7703 83.5095 50.3938C74.1283 54.1027 63.0324 52.1648 55.4452 44.5776Z" fill="url(#paint0_linear_282_5994)"/>
<path d="M97.7288 49.9509C97.8356 49.8441 98.0751 49.5472 97.9901 49.1015L96.4343 40.9417C96.0684 39.0229 96.2529 37.0511 96.968 35.2397C100.639 25.9392 98.396 15.4072 91.2551 8.40798C86.5447 3.79112 80.3366 1.2672 73.7741 1.30112C67.2125 1.33504 61.0292 3.92288 56.365 8.587C56.3649 8.5872 56.3652 8.58681 56.365 8.587C46.696 18.2562 46.696 33.989 56.365 43.658C63.3607 50.6537 73.828 52.8229 83.0315 49.1843C84.8317 48.4725 86.7988 48.2899 88.7198 48.6562L96.8794 50.2121C97.3251 50.2972 97.6217 50.0578 97.7288 49.9509Z" fill="url(#paint1_linear_282_5994)"/>
<path d="M70.5117 30.335V51.9987C74.8792 52.5673 79.3629 52.0336 83.5113 50.3934C85.0884 49.7699 86.8121 49.6157 88.4778 49.9334L90.4945 50.3179L70.5117 30.335Z" fill="url(#paint2_linear_282_5994)"/>
<path d="M70.0933 87.9751C86.1286 71.9398 86.1286 45.9417 70.0933 29.9064C54.128 13.9407 28.4486 13.8053 12.3239 29.61C0.145481 41.5464 -3.00589 59.1586 2.86509 74.0351C3.84744 76.5245 4.09901 79.2425 3.59783 81.8713L1.15038 94.7088C0.682344 97.1635 2.83627 99.3172 5.29078 98.8492L18.1278 96.4015C20.7486 95.9019 23.4604 96.1443 25.9414 97.1253C40.7002 102.96 58.1567 99.9117 70.0933 87.9751Z" fill="url(#paint3_linear_282_5994)"/>
<path d="M3.57243 96.4282C3.40439 96.2602 3.02753 95.7931 3.16126 95.0919L5.6091 82.2547C6.18459 79.2359 5.89439 76.1337 4.76949 73.2839C-1.00521 58.6519 2.52282 42.0823 13.7573 31.071C21.1679 23.8074 30.9348 19.8368 41.2591 19.8902C51.582 19.9435 61.3099 24.0149 68.6477 31.3527C68.6481 31.3531 68.6475 31.3525 68.6479 31.3529C83.8597 46.5649 83.8597 71.3163 68.6479 86.528C57.642 97.5339 41.1744 100.947 26.6952 95.2223C23.8628 94.1025 20.7683 93.8155 17.7462 94.3915L4.9089 96.8392C4.20753 96.9731 3.74067 96.5965 3.57243 96.4282Z" fill="url(#paint4_linear_282_5994)"/>
<path d="M61.0993 94.792C57.2138 96.9663 53.0516 98.4597 48.7836 99.272L35.1157 85.6042C33.9304 84.4208 33.3398 83.0297 33.3398 81.4342C33.3398 79.7877 33.9324 78.3826 35.1216 77.2249C36.3108 76.0671 37.7238 75.4883 39.3622 75.4883C41.0106 75.4883 42.4136 76.0808 43.5714 77.2642L61.0993 94.792Z" fill="url(#paint5_linear_282_5994)"/>
<path d="M81.864 63.5219C80.8672 72.4547 76.9424 81.1262 70.0919 87.9749C67.4524 90.6143 64.5442 92.818 61.4556 94.59L35.9626 69.0949C35.3444 68.3845 35.0344 67.0403 35.0344 65.0623C35.0344 61.3515 36.0862 58.196 38.1762 55.5899L26.6513 44.0552C25.7015 43.2841 25.2266 42.2027 25.2266 40.8115C25.2266 38.3409 26.5648 35.9978 29.2434 33.7843C31.9201 31.5707 35.6524 30.4639 40.4407 30.4639C45.3309 30.4639 49.2948 31.6747 52.3346 34.0923C52.8213 34.4809 72.4291 54.0829 81.864 63.5219Z" fill="url(#paint6_linear_282_5994)"/>
<path d="M81.8655 63.5216C80.8686 72.4543 76.9439 81.1259 70.0933 87.9745C67.4539 90.6139 64.5457 92.8176 61.457 94.5896L36.1523 69.2829C36.7941 69.8676 37.838 70.1582 39.2843 70.1582C42.322 70.1582 43.841 69.1045 43.841 66.991C43.841 65.3445 43.9037 64.122 44.0333 63.3233C44.161 62.5267 44.5474 61.5984 45.1931 60.5447C45.8349 59.489 46.8298 58.4194 48.1739 57.3382C53.9845 52.8602 56.8927 48.1486 56.8927 43.2053C56.8927 40.4972 56.0588 38.1306 54.3927 36.1016C59.7439 41.3998 74.179 55.8329 81.8655 63.5216Z" fill="url(#paint7_linear_282_5994)"/>
<path d="M25.2266 40.8123C25.2266 38.3411 26.5652 35.9988 29.2424 33.7846C31.9189 31.5715 35.6524 30.4639 40.4409 30.4639C45.3313 30.4639 49.2954 31.6743 52.3336 34.0933C55.3711 36.5139 56.8905 39.5513 56.8905 43.2062C56.8905 48.149 53.9834 52.8601 48.1723 57.3394C46.8277 58.4207 45.8334 59.4894 45.1905 60.5445C44.5458 61.6001 44.1599 62.5266 44.0319 63.3243C43.9024 64.1233 43.8387 65.3456 43.8387 66.9927C43.8387 69.1047 42.3197 70.1592 39.2822 70.1592C37.686 70.1592 36.5793 69.8045 35.9615 69.0948C35.3438 68.3852 35.0348 67.0411 35.0348 65.0623C35.0348 60.2956 36.7591 56.4415 40.2093 53.4996C40.3636 53.3474 41.0319 52.815 42.2172 51.9029C43.4007 50.9909 44.225 50.3052 44.6883 49.8492C45.1517 49.3927 45.6656 48.6958 46.2328 47.7566C46.7987 46.8178 47.0824 45.867 47.0824 44.9039C47.0824 43.2303 46.4403 41.9499 45.1577 41.0621C43.8746 40.175 42.2073 39.7311 40.1556 39.7311C38.4109 39.7311 36.9748 40.0154 35.8464 40.5852C34.7172 41.1546 33.9736 41.7848 33.6144 42.4725C33.2544 43.1615 32.7668 43.7899 32.1517 44.3597C31.5366 44.9296 30.7666 45.2139 29.8434 45.2139C28.663 45.2139 27.5989 44.828 26.6501 44.0556C25.7011 43.2839 25.2266 42.2025 25.2266 40.8123ZM33.336 81.4341C33.336 79.7872 33.9297 78.3837 35.1191 77.2254C36.3079 76.0672 37.7207 75.4876 39.3597 75.4876C41.007 75.4876 42.4101 76.0803 43.5683 77.2639C44.727 78.4488 45.3064 79.8388 45.3064 81.4341C45.3064 83.0307 44.727 84.4205 43.5683 85.6047C42.4101 86.7896 41.007 87.3809 39.3597 87.3809C37.7111 87.3809 36.2958 86.7896 35.1122 85.6047C33.927 84.4205 33.336 83.0307 33.336 81.4341Z" fill="url(#paint8_linear_282_5994)"/>
</g>
<defs>
<linearGradient id="paint0_linear_282_5994" x1="67.7428" y1="14.3887" x2="88.5272" y2="53.9966" gradientUnits="userSpaceOnUse">
<stop stop-color="#18CFFC"/>
<stop offset="1" stop-color="#4A98F7"/>
</linearGradient>
<linearGradient id="paint1_linear_282_5994" x1="79.8078" y1="37.0454" x2="57.6509" y2="-3.93496" gradientUnits="userSpaceOnUse">
<stop stop-color="#18CFFC" stop-opacity="0"/>
<stop offset="1" stop-color="#65E1DC"/>
</linearGradient>
<linearGradient id="paint2_linear_282_5994" x1="95.1627" y1="65.8179" x2="66.7425" y2="37.3977" gradientUnits="userSpaceOnUse">
<stop stop-color="#0469BC" stop-opacity="0"/>
<stop offset="1" stop-color="#0469BC"/>
</linearGradient>
<linearGradient id="paint3_linear_282_5994" x1="41.0619" y1="23.8884" x2="41.0619" y2="139.735" gradientUnits="userSpaceOnUse">
<stop stop-color="#F9F7FC"/>
<stop offset="1" stop-color="#F0DDFC"/>
</linearGradient>
<linearGradient id="paint4_linear_282_5994" x1="37.152" y1="64.9037" x2="12.8187" y2="30.7586" gradientUnits="userSpaceOnUse">
<stop stop-color="white" stop-opacity="0"/>
<stop offset="1" stop-color="white"/>
</linearGradient>
<linearGradient id="paint5_linear_282_5994" x1="52.3273" y1="95.2195" x2="36.4322" y2="76.3806" gradientUnits="userSpaceOnUse">
<stop stop-color="#F0DDFC" stop-opacity="0"/>
<stop offset="0.2085" stop-color="#DFCDF1" stop-opacity="0.209"/>
<stop offset="0.6167" stop-color="#B5A4D3" stop-opacity="0.617"/>
<stop offset="1" stop-color="#8779B3"/>
</linearGradient>
<linearGradient id="paint6_linear_282_5994" x1="48.066" y1="53.1607" x2="28.6387" y2="29.6125" gradientUnits="userSpaceOnUse">
<stop stop-color="#F0DDFC" stop-opacity="0"/>
<stop offset="0.2085" stop-color="#DFCDF1" stop-opacity="0.209"/>
<stop offset="0.6167" stop-color="#B5A4D3" stop-opacity="0.617"/>
<stop offset="1" stop-color="#8779B3"/>
</linearGradient>
<linearGradient id="paint7_linear_282_5994" x1="64.3116" y1="70.2882" x2="41.7443" y2="52.8233" gradientUnits="userSpaceOnUse">
<stop stop-color="#F0DDFC" stop-opacity="0"/>
<stop offset="0.2085" stop-color="#DFCDF1" stop-opacity="0.209"/>
<stop offset="0.6167" stop-color="#B5A4D3" stop-opacity="0.617"/>
<stop offset="1" stop-color="#8779B3"/>
</linearGradient>
<linearGradient id="paint8_linear_282_5994" x1="28.1562" y1="52.0698" x2="59.356" y2="67.6698" gradientUnits="userSpaceOnUse">
<stop stop-color="#FF7044"/>
<stop offset="1" stop-color="#F92814"/>
</linearGradient>
<clipPath id="clip0_282_5994">
<rect width="100" height="100" fill="white"/>
</clipPath>
</defs>
</svg>
