<svg width="100" height="100" viewBox="0 0 100 100" fill="none" xmlns="http://www.w3.org/2000/svg">
<g clip-path="url(#clip0_282_6016)">
<path d="M71.9459 94.7161H25.0068C22.6882 94.7161 20.8086 92.8365 20.8086 90.5177V4.19843C20.8086 1.87961 22.6882 0 25.0068 0H84.691C87.0096 0 88.8894 1.87961 88.8894 4.19843V77.7726C88.8894 87.1302 81.3035 94.7161 71.9459 94.7161Z" fill="url(#paint0_linear_282_6016)"/>
<path d="M20.8086 90.5175C20.8086 92.8362 22.6882 94.716 25.0068 94.716H32.207V10.7842H20.8086V90.5175Z" fill="url(#paint1_linear_282_6016)"/>
<path d="M78.0698 6.75195V83.0565L66.4102 94.7161H71.9447C81.3023 94.7161 88.8882 87.1302 88.8882 77.7726V17.5704L78.0698 6.75195Z" fill="url(#paint2_linear_282_6016)"/>
<path d="M74.9917 5.28418H15.3074C12.9898 5.28418 11.1094 7.16261 11.1094 9.48222V95.8018C11.1094 98.1195 12.9898 99.9999 15.3074 99.9999H62.2466C71.6035 99.9999 79.1898 92.4136 79.1898 83.0567V9.48222C79.1898 7.16261 77.3113 5.28418 74.9917 5.28418ZM20.929 90.9097C18.3309 90.9097 16.2231 88.8038 16.2231 86.2038C16.2231 83.6058 18.3309 81.4979 20.929 81.4979C23.527 81.4979 25.6349 83.6058 25.6349 86.2038C25.6349 88.8038 23.527 90.9097 20.929 90.9097ZM20.929 74.1293C18.3309 74.1293 16.2231 72.0214 16.2231 69.4234C16.2231 66.8234 18.3309 64.7175 20.929 64.7175C23.527 64.7175 25.6349 66.8234 25.6349 69.4234C25.6349 72.0214 23.527 74.1293 20.929 74.1293ZM20.929 57.3469C18.3309 57.3469 16.2231 55.241 16.2231 52.641C16.2231 50.043 18.3309 47.9352 20.929 47.9352C23.527 47.9352 25.6349 50.043 25.6349 52.641C25.6349 55.241 23.527 57.3469 20.929 57.3469ZM20.929 40.5665C18.3309 40.5665 16.2231 38.4607 16.2231 35.8607C16.2231 33.2626 18.3309 31.1548 20.929 31.1548C23.527 31.1548 25.6349 33.2626 25.6349 35.8607C25.6349 38.4607 23.527 40.5665 20.929 40.5665ZM20.929 23.7861C18.3309 23.7861 16.2231 21.6783 16.2231 19.0803C16.2231 16.4803 18.3309 14.3744 20.929 14.3744C23.527 14.3744 25.6349 16.4803 25.6349 19.0803C25.6349 21.6783 23.527 23.7861 20.929 23.7861Z" fill="url(#paint3_linear_282_6016)"/>
<path d="M72.3809 22.2547H33.1893C32.3772 22.2547 31.7188 21.5964 31.7188 20.7841C31.7188 19.9717 32.3772 19.3135 33.1893 19.3135H72.3809C73.1933 19.3135 73.8515 19.9717 73.8515 20.7841C73.8515 21.5964 73.1931 22.2547 72.3809 22.2547Z" fill="#8AC9FE"/>
<path d="M72.3809 32.6248H33.1893C32.3772 32.6248 31.7188 31.9665 31.7188 31.1542C31.7188 30.3418 32.3772 29.6836 33.1893 29.6836H72.3809C73.1933 29.6836 73.8515 30.3418 73.8515 31.1542C73.8515 31.9665 73.1931 32.6248 72.3809 32.6248Z" fill="#8AC9FE"/>
<path d="M72.3809 42.9959H33.1893C32.3772 42.9959 31.7188 42.3376 31.7188 41.5253C31.7188 40.7129 32.3772 40.0547 33.1893 40.0547H72.3809C73.1933 40.0547 73.8515 40.7129 73.8515 41.5253C73.8515 42.3376 73.1931 42.9959 72.3809 42.9959Z" fill="#8AC9FE"/>
<path d="M72.3809 53.366H33.1893C32.3772 53.366 31.7188 52.7077 31.7188 51.8954C31.7188 51.083 32.3772 50.4248 33.1893 50.4248H72.3809C73.1933 50.4248 73.8515 51.083 73.8515 51.8954C73.8515 52.7077 73.1931 53.366 72.3809 53.366Z" fill="#8AC9FE"/>
<path d="M72.3809 63.7371H33.1893C32.3772 63.7371 31.7188 63.0788 31.7188 62.2665C31.7188 61.4541 32.3772 60.7959 33.1893 60.7959H72.3809C73.1933 60.7959 73.8515 61.4541 73.8515 62.2665C73.8515 63.0788 73.1931 63.7371 72.3809 63.7371Z" fill="#8AC9FE"/>
<path d="M72.3809 74.1072H33.1893C32.3772 74.1072 31.7188 73.449 31.7188 72.6366C31.7188 71.8243 32.3772 71.166 33.1893 71.166H72.3809C73.1933 71.166 73.8515 71.8243 73.8515 72.6366C73.8515 73.449 73.1931 74.1072 72.3809 74.1072Z" fill="#8AC9FE"/>
<path d="M11.1094 69.2334V95.802C11.1094 98.1207 12.989 100 15.3076 100H62.2466C71.6043 100 79.1902 92.4144 79.1902 83.0567V69.2334H11.1094Z" fill="url(#paint4_linear_282_6016)"/>
<path d="M62.2461 99.9994V87.2541C62.2461 84.9355 64.1257 83.0557 66.4445 83.0557H79.1898C79.1896 92.4135 71.6037 99.9994 62.2461 99.9994Z" fill="url(#paint5_linear_282_6016)"/>
</g>
<defs>
<linearGradient id="paint0_linear_282_6016" x1="24.9008" y1="17.4098" x2="81.5878" y2="74.0969" gradientUnits="userSpaceOnUse">
<stop stop-color="#B3DAFE"/>
<stop offset="1" stop-color="#7BACDF"/>
</linearGradient>
<linearGradient id="paint1_linear_282_6016" x1="21.8149" y1="52.7501" x2="26.1684" y2="52.7501" gradientUnits="userSpaceOnUse">
<stop stop-color="#7BACDF" stop-opacity="0"/>
<stop offset="1" stop-color="#0681AF"/>
</linearGradient>
<linearGradient id="paint2_linear_282_6016" x1="86.9119" y1="50.7339" x2="75.9245" y2="50.7339" gradientUnits="userSpaceOnUse">
<stop stop-color="#7BACDF" stop-opacity="0"/>
<stop offset="1" stop-color="#0681AF"/>
</linearGradient>
<linearGradient id="paint3_linear_282_6016" x1="22.4207" y1="29.9124" x2="90.8341" y2="98.3258" gradientUnits="userSpaceOnUse">
<stop stop-color="#EAF6FF"/>
<stop offset="1" stop-color="#B3DAFE"/>
</linearGradient>
<linearGradient id="paint4_linear_282_6016" x1="45.1498" y1="92.9414" x2="45.1498" y2="103.145" gradientUnits="userSpaceOnUse">
<stop stop-color="#7BACDF" stop-opacity="0"/>
<stop offset="1" stop-color="#0681AF"/>
</linearGradient>
<linearGradient id="paint5_linear_282_6016" x1="67.091" y1="87.9008" x2="72.4043" y2="93.2141" gradientUnits="userSpaceOnUse">
<stop stop-color="#EAF6FF"/>
<stop offset="1" stop-color="#B3DAFE"/>
</linearGradient>
<clipPath id="clip0_282_6016">
<rect width="100" height="100" fill="white"/>
</clipPath>
</defs>
</svg>
