<svg width="22" height="26" viewBox="0 0 22 26" fill="none" xmlns="http://www.w3.org/2000/svg">
<path d="M18.0483 13.8183C18.0483 10.5253 20.7692 8.9496 20.8408 8.87798C19.3383 6.65926 16.9031 6.30895 16.1153 6.30895C14.1107 6.09408 12.1777 7.52573 11.175 7.52573C10.1006 7.52573 8.60591 6.38134 6.8792 6.38134C4.73055 6.38134 2.65508 7.66975 1.58075 9.60276C-0.781992 13.612 0.936148 19.4897 3.15565 22.7049C4.22997 24.2798 5.51839 26.0695 7.23653 25.9979C8.88305 25.9263 9.52766 24.9236 11.5323 24.9236C13.5369 24.9236 14.1013 25.9979 15.828 25.9263C17.6186 25.9263 18.6929 24.3514 19.7657 22.7757C21.0541 20.9852 21.5562 19.1962 21.5562 19.0529C21.4846 19.0529 18.1199 17.7645 18.0483 13.8261V13.8183ZM14.8269 4.15249C15.6863 3.0081 16.3294 1.50328 16.1869 0C14.8985 0.0716218 13.322 0.859447 12.3925 2.00462C11.6047 2.9357 10.8176 4.5114 11.0325 6.0139C12.3925 6.08552 13.8974 5.22604 14.8269 4.14549V4.15249Z" fill="black"/>
</svg>
