<svg width="24" height="24" viewBox="0 0 24 24" fill="none" xmlns="http://www.w3.org/2000/svg">
<path d="M11.6226 7.22161C10.7466 7.22161 9.3906 6.22561 7.9626 6.26161C6.0786 6.28561 4.3506 7.35361 3.3786 9.04561C1.4226 12.4416 2.8746 17.4576 4.7826 20.2176C5.7186 21.5616 6.8226 23.0736 8.2866 23.0256C9.6906 22.9656 10.2186 22.1136 11.9226 22.1136C13.6146 22.1136 14.0946 23.0256 15.5826 22.9896C17.0946 22.9656 18.0546 21.6216 18.9786 20.2656C20.0466 18.7056 20.4906 17.1936 20.5146 17.1096C20.4786 17.0976 17.5746 15.9816 17.5386 12.6216C17.5146 9.81361 19.8306 8.46961 19.9386 8.40961C18.6186 6.47761 16.5906 6.26161 15.8826 6.21361C14.0346 6.06961 12.4866 7.22161 11.6226 7.22161ZM14.7426 4.38961C15.5226 3.45361 16.0386 2.14561 15.8946 0.849609C14.7786 0.897609 13.4346 1.59361 12.6306 2.52961C11.9106 3.35761 11.2866 4.68961 11.4546 5.96161C12.6906 6.05761 13.9626 5.32561 14.7426 4.38961Z" fill="#777777"/>
</svg>
