<svg width="48" height="48" viewBox="0 0 48 48" fill="none" xmlns="http://www.w3.org/2000/svg">
<g clip-path="url(#clip0_28_51)">
<path d="M36.728 34.728L24 47.456L11.272 34.728C8.75469 32.2107 7.04037 29.0034 6.34586 25.5117C5.65134 22.0201 6.00781 18.4009 7.3702 15.1118C8.73258 11.8228 11.0397 9.01157 13.9998 7.03372C16.9598 5.05586 20.44 4.00018 24 4.00018C27.5601 4.00018 31.0402 5.05586 34.0002 7.03372C36.9603 9.01157 39.2674 11.8228 40.6298 15.1118C41.9922 18.4009 42.3487 22.0201 41.6542 25.5117C40.9596 29.0034 39.2453 32.2107 36.728 34.728Z" fill="#333333"/>
<path d="M28.6667 23.4806C27.9257 25.3315 26.1155 26.6388 24 26.6388C21.8845 26.6388 20.0743 25.3315 19.3333 23.4806L16 24.814C17.2703 27.9868 20.3734 30.228 24 30.228C27.6266 30.228 30.7297 27.9868 32 24.814L28.6667 23.4806Z" fill="white"/>
<path d="M28.6667 19.7473C27.9257 17.8965 26.1155 16.5892 24 16.5892C21.8845 16.5892 20.0743 17.8965 19.3333 19.7473L16 18.414C17.2703 15.2411 20.3734 13 24 13C27.6266 13 30.7297 15.2411 32 18.414L28.6667 19.7473Z" fill="white"/>
<path d="M25.7822 21.6714C25.7822 22.6546 24.9852 23.4516 24.002 23.4516C23.0188 23.4516 22.2218 22.6546 22.2218 21.6714C22.2218 20.6882 23.0188 19.8912 24.002 19.8912C24.9852 19.8912 25.7822 20.6882 25.7822 21.6714Z" fill="white"/>
</g>
<defs>
<clipPath id="clip0_28_51">
<rect width="48" height="48" fill="white"/>
</clipPath>
</defs>
</svg>
