<svg width="80" height="80" viewBox="0 0 80 80" fill="none" xmlns="http://www.w3.org/2000/svg">
<circle cx="40" cy="40" r="40" fill="url(#paint0_radial_282_5677)"/>
<g filter="url(#filter0_d_282_5677)">
<ellipse cx="20.9123" cy="34.0658" rx="3.36278" ry="5.10345" transform="rotate(2.86253 20.9123 34.0658)" fill="url(#paint1_radial_282_5677)"/>
</g>
<g filter="url(#filter1_d_282_5677)">
<ellipse rx="3.36278" ry="5.10345" transform="matrix(-0.998752 0.0499398 0.0499398 0.998752 59.0643 34.0658)" fill="url(#paint2_radial_282_5677)"/>
</g>
<path d="M45.2424 41.0535C40.9389 42.819 36.7366 41.7891 35.1734 41.0535C34.0701 40.5937 31.2841 39.7569 28.9669 40.088C26.0703 40.5018 23.5872 41.4673 23.0355 45.4673C22.4838 49.4673 25.932 52.6397 28.1389 54.019C30.3458 55.3983 33.6562 57.1914 40.8286 57.1914C48.001 57.1914 55.3113 53.7431 57.1045 48.3638C58.5389 44.0604 55.7711 41.5133 54.2079 40.7776C53.0125 40.134 49.5458 39.288 45.2424 41.0535Z" fill="#040200"/>
<mask id="mask0_282_5677" style="mask-type:alpha" maskUnits="userSpaceOnUse" x="22" y="40" width="36" height="18">
<path d="M45.2424 41.0535C40.9389 42.819 36.7366 41.7891 35.1734 41.0535C34.0701 40.5937 31.2841 39.7569 28.9669 40.088C26.0703 40.5018 23.5872 41.4673 23.0355 45.4673C22.4838 49.4673 25.932 52.6397 28.1389 54.019C30.3458 55.3983 33.6562 57.1914 40.8286 57.1914C48.001 57.1914 55.3113 53.7431 57.1045 48.3638C58.5389 44.0604 55.7711 41.5133 54.2079 40.7776C53.0125 40.134 49.5458 39.288 45.2424 41.0535Z" fill="#040200"/>
</mask>
<g mask="url(#mask0_282_5677)">
<path d="M56.6901 45.3797C42.759 48.4142 29.7935 46.7591 23.8625 45.3797C23.8625 45.3797 23.1728 45.2418 23.1728 44.5522C23.1728 43.8625 22.6211 39.1729 22.6211 39.1729H57.6556L57.2418 44.5522C57.2418 44.5522 57.3797 44.966 56.6901 45.3797Z" fill="#E7E3E0"/>
<g filter="url(#filter2_i_282_5677)">
<path d="M45.2424 41.0535C40.9389 42.819 36.7366 41.7891 35.1734 41.0535C34.0701 40.5937 31.2841 39.7569 28.9669 40.088C26.0703 40.5018 23.5872 41.4673 23.0355 45.4673C22.4838 49.4673 25.932 52.6397 28.1389 54.019C30.3458 55.3983 33.6562 57.1914 40.8286 57.1914C48.001 57.1914 55.3113 53.7431 57.1045 48.3638C58.5389 44.0604 55.7711 41.5133 54.2079 40.7776C53.0125 40.134 49.5458 39.288 45.2424 41.0535Z" fill="#040200" fill-opacity="0.01"/>
</g>
</g>
<defs>
<filter id="filter0_d_282_5677" x="16.543" y="27.9658" width="10.7383" height="14.2002" filterUnits="userSpaceOnUse" color-interpolation-filters="sRGB">
<feFlood flood-opacity="0" result="BackgroundImageFix"/>
<feColorMatrix in="SourceAlpha" type="matrix" values="0 0 0 0 0 0 0 0 0 0 0 0 0 0 0 0 0 0 127 0" result="hardAlpha"/>
<feOffset dx="1" dy="1"/>
<feGaussianBlur stdDeviation="1"/>
<feComposite in2="hardAlpha" operator="out"/>
<feColorMatrix type="matrix" values="0 0 0 0 0 0 0 0 0 0 0 0 0 0 0 0 0 0 0.5 0"/>
<feBlend mode="normal" in2="BackgroundImageFix" result="effect1_dropShadow_282_5677"/>
<feBlend mode="normal" in="SourceGraphic" in2="effect1_dropShadow_282_5677" result="shape"/>
</filter>
<filter id="filter1_d_282_5677" x="52.6953" y="27.9658" width="10.7383" height="14.2002" filterUnits="userSpaceOnUse" color-interpolation-filters="sRGB">
<feFlood flood-opacity="0" result="BackgroundImageFix"/>
<feColorMatrix in="SourceAlpha" type="matrix" values="0 0 0 0 0 0 0 0 0 0 0 0 0 0 0 0 0 0 127 0" result="hardAlpha"/>
<feOffset dx="-1" dy="1"/>
<feGaussianBlur stdDeviation="1"/>
<feComposite in2="hardAlpha" operator="out"/>
<feColorMatrix type="matrix" values="0 0 0 0 0 0 0 0 0 0 0 0 0 0 0 0 0 0 0.5 0"/>
<feBlend mode="normal" in2="BackgroundImageFix" result="effect1_dropShadow_282_5677"/>
<feBlend mode="normal" in="SourceGraphic" in2="effect1_dropShadow_282_5677" result="shape"/>
</filter>
<filter id="filter2_i_282_5677" x="22.9766" y="40" width="34.5273" height="19.1914" filterUnits="userSpaceOnUse" color-interpolation-filters="sRGB">
<feFlood flood-opacity="0" result="BackgroundImageFix"/>
<feBlend mode="normal" in="SourceGraphic" in2="BackgroundImageFix" result="shape"/>
<feColorMatrix in="SourceAlpha" type="matrix" values="0 0 0 0 0 0 0 0 0 0 0 0 0 0 0 0 0 0 127 0" result="hardAlpha"/>
<feOffset dy="2"/>
<feGaussianBlur stdDeviation="1"/>
<feComposite in2="hardAlpha" operator="arithmetic" k2="-1" k3="1"/>
<feColorMatrix type="matrix" values="0 0 0 0 0 0 0 0 0 0 0 0 0 0 0 0 0 0 0.4 0"/>
<feBlend mode="normal" in2="shape" result="effect1_innerShadow_282_5677"/>
</filter>
<radialGradient id="paint0_radial_282_5677" cx="0" cy="0" r="1" gradientUnits="userSpaceOnUse" gradientTransform="translate(40 25.3793) rotate(90) scale(54.6207)">
<stop offset="0.447917" stop-color="#F6E05A"/>
<stop offset="1" stop-color="#E7A306"/>
</radialGradient>
<radialGradient id="paint1_radial_282_5677" cx="0" cy="0" r="1" gradientUnits="userSpaceOnUse" gradientTransform="translate(22.2057 29.3761) rotate(103.746) scale(6.5319 4.33738)">
<stop stop-color="#B3B3B3"/>
<stop offset="1" stop-color="#050301"/>
</radialGradient>
<radialGradient id="paint2_radial_282_5677" cx="0" cy="0" r="1" gradientUnits="userSpaceOnUse" gradientTransform="translate(4.65615 0.413793) rotate(103.746) scale(6.5319 4.33738)">
<stop stop-color="#B3B3B3"/>
<stop offset="1" stop-color="#050301"/>
</radialGradient>
</defs>
</svg>
