<svg width="240" height="240" viewBox="0 0 240 240" fill="none" xmlns="http://www.w3.org/2000/svg">
<rect width="240" height="240" fill="#FAFAFA"/>
<path d="M116.1 94.1V74.5H125.9V94.1H145.5V103.9H125.9V123.5H116.1V103.9H96.5V94.1H116.1ZM121 148C93.9373 148 72 126.063 72 99C72 71.9373 93.9373 50 121 50C148.063 50 170 71.9373 170 99C170 126.063 148.063 148 121 148ZM121 138.2C131.396 138.2 141.367 134.07 148.719 126.719C156.07 119.367 160.2 109.396 160.2 99C160.2 88.6035 156.07 78.6328 148.719 71.2814C141.367 63.93 131.396 59.8 121 59.8C110.604 59.8 100.633 63.93 93.2814 71.2814C85.93 78.6328 81.8 88.6035 81.8 99C81.8 109.396 85.93 119.367 93.2814 126.719C100.633 134.07 110.604 138.2 121 138.2Z" fill="#6D6D6D"/>
<path d="M64.039 171.936V175.328H80.391V171.936H64.039ZM63.719 192.096C68.775 192.096 75.495 191.968 81.479 190.912L81.255 187.808C75.399 188.544 68.423 188.608 63.271 188.608L63.719 192.096ZM66.567 174.592V189.536H70.695V174.592H66.567ZM73.735 174.592V189.536H77.863V174.592H73.735ZM82.599 169.216V198.848H86.887V169.216H82.599ZM85.927 180.448V183.936H91.175V180.448H85.927ZM100.945 170.08C96.4325 170.08 93.0405 172.896 93.0405 176.864C93.0405 180.8 96.4325 183.616 100.945 183.616C105.457 183.616 108.849 180.8 108.849 176.864C108.849 172.896 105.457 170.08 100.945 170.08ZM100.945 173.536C103.121 173.536 104.721 174.752 104.721 176.864C104.721 178.976 103.121 180.192 100.945 180.192C98.7685 180.192 97.1365 178.976 97.1365 176.864C97.1365 174.752 98.7685 173.536 100.945 173.536ZM112.945 169.216V184.032H117.233V169.216H112.945ZM97.4565 185.248V188.544H113.009V190.304H97.5205V196.96H101.681V193.376H117.233V185.248H97.4565ZM97.5205 195.232V198.528H117.969V195.232H97.5205ZM128.186 174.432V175.52C128.186 178.784 126.106 182.048 121.306 183.36L123.29 186.656C128.954 185.056 131.61 180.576 131.61 175.52V174.432H128.186ZM128.986 174.432V175.52C128.986 180.384 131.706 184.672 137.402 186.176L139.322 182.848C134.554 181.6 132.442 178.56 132.442 175.52V174.432H128.986ZM122.362 172.16V175.488H138.266V172.16H122.362ZM128.186 169.12V173.6H132.442V169.12H128.186ZM137.562 176.96V180.384H143.194V176.96H137.562ZM142.074 169.216V186.56H146.33V169.216H142.074ZM126.586 187.872V198.528H146.33V187.872H126.586ZM142.17 191.2V195.168H130.778V191.2H142.17ZM150.468 186.272V189.632H177.316V186.272H150.468ZM161.668 187.968V198.848H165.892V187.968H161.668ZM153.54 170.336V183.456H174.148V170.336H169.924V173.696H157.764V170.336H153.54ZM157.764 177.024H169.924V180.064H157.764V177.024Z" fill="#6D6D6D"/>
</svg>
