<svg width="1024" height="860" viewBox="0 0 1024 860" fill="none" xmlns="http://www.w3.org/2000/svg">
<g filter="url(#filter0_dd_1564_25424)">
<path d="M700.246 219.363C730.282 219.363 754.631 194.881 754.631 164.682C754.631 134.482 730.282 110 700.246 110C670.209 110 645.86 134.482 645.86 164.682C645.86 194.881 670.209 219.363 700.246 219.363Z" fill="#FF7B27"/>
<path d="M750.124 272.392C733.776 268.245 716.623 266.059 698.965 266.059C644.154 266.059 594.406 287.27 557.63 321.776V321.75L543.07 334.794V334.819C539.62 337.508 536.521 340.097 533.977 342.559C495.816 379.428 373.78 501.586 336.248 539.107C331.135 544.216 326.025 549.329 320.92 554.446C298.758 576.664 262.881 576.842 240.649 554.695C218.285 532.416 218.276 496.078 240.628 473.788L359.078 355.258C378.978 335.344 379.387 303.2 360 282.787C339.971 261.697 306.528 261.167 285.841 281.612L167.634 398.428C104.99 459.679 104.005 560.526 165.441 623.001C227.721 686.334 329.688 685.484 391.161 621.36C423.331 587.803 468.322 541.449 493.599 515.49C495.236 513.807 496.823 512.173 498.461 510.489H498.486C518.284 601.642 600.501 670 698.94 670C812.19 670 904.004 579.576 904.004 468.017C904.004 373.874 838.613 294.784 750.124 272.392ZM695.968 572.59C639.418 572.59 593.549 526.9 593.549 470.555C593.549 414.21 639.393 368.52 695.968 368.52C752.542 368.52 798.386 414.21 798.386 470.555C798.386 526.9 752.542 572.59 695.968 572.59Z" fill="white"/>
</g>
<defs>
<filter id="filter0_dd_1564_25424" x="-30" y="0" width="1084" height="860" filterUnits="userSpaceOnUse" color-interpolation-filters="sRGB">
<feFlood flood-opacity="0" result="BackgroundImageFix"/>
<feColorMatrix in="SourceAlpha" type="matrix" values="0 0 0 0 0 0 0 0 0 0 0 0 0 0 0 0 0 0 127 0" result="hardAlpha"/>
<feOffset dy="40"/>
<feGaussianBlur stdDeviation="75"/>
<feComposite in2="hardAlpha" operator="out"/>
<feColorMatrix type="matrix" values="0 0 0 0 0 0 0 0 0 0 0 0 0 0 0 0 0 0 0.2 0"/>
<feBlend mode="normal" in2="BackgroundImageFix" result="effect1_dropShadow_1564_25424"/>
<feColorMatrix in="SourceAlpha" type="matrix" values="0 0 0 0 0 0 0 0 0 0 0 0 0 0 0 0 0 0 127 0" result="hardAlpha"/>
<feOffset/>
<feGaussianBlur stdDeviation="10"/>
<feComposite in2="hardAlpha" operator="out"/>
<feColorMatrix type="matrix" values="0 0 0 0 0 0 0 0 0 0 0 0 0 0 0 0 0 0 0.3 0"/>
<feBlend mode="normal" in2="effect1_dropShadow_1564_25424" result="effect2_dropShadow_1564_25424"/>
<feBlend mode="normal" in="SourceGraphic" in2="effect2_dropShadow_1564_25424" result="shape"/>
</filter>
</defs>
</svg>
