<svg xmlns="http://www.w3.org/2000/svg" version="1.1" xmlns:xlink="http://www.w3.org/1999/xlink" xmlns:svgjs="http://svgjs.com/svgjs" width="500" height="500"><svg width="500" height="500" viewBox="0 0 500 500" fill="none" xmlns="http://www.w3.org/2000/svg">
<path d="M392.62 304.176C371.114 357.891 318.578 395.833 257.181 395.833C195.784 395.833 143.248 357.891 121.742 304.176L25 342.872C61.8671 434.957 151.928 500 257.181 500C362.434 500 452.495 434.957 489.362 342.872L392.62 304.176Z" fill="#333333"></path>
<path d="M392.62 195.824C371.114 142.109 318.578 104.167 257.181 104.167C195.784 104.167 143.248 142.109 121.742 195.824L25 157.128C61.8671 65.0433 151.928 0 257.181 0C362.434 0 452.495 65.0433 489.362 157.128L392.62 195.824Z" fill="#333333"></path>
<path d="M308.906 251.667C308.906 280.201 285.774 303.333 257.24 303.333C228.705 303.333 205.573 280.201 205.573 251.667C205.573 223.132 228.705 200 257.24 200C285.774 200 308.906 223.132 308.906 251.667Z" fill="#333333"></path>
</svg><style>@media (prefers-color-scheme: light) { :root { filter: none; } }
</style></svg>