<?xml version="1.0" standalone="no"?>
<!DOCTYPE svg PUBLIC "-//W3C//DTD SVG 20010904//EN"
 "http://www.w3.org/TR/2001/REC-SVG-20010904/DTD/svg10.dtd">
<svg version="1.0" xmlns="http://www.w3.org/2000/svg"
 width="500.000000pt" height="500.000000pt" viewBox="0 0 500.000000 500.000000"
 preserveAspectRatio="xMidYMid meet">
<metadata>
Created by potrace 1.14, written by Peter Selinger 2001-2017
</metadata>
<g transform="translate(0.000000,500.000000) scale(0.100000,-0.100000)"
fill="#000000" stroke="none">
<path d="M2389 4996 c-2 -2 -35 -6 -74 -10 -38 -3 -81 -8 -95 -10 -14 -3 -41
-7 -60 -10 -19 -3 -46 -8 -60 -11 -14 -3 -40 -8 -58 -11 -69 -11 -282 -77
-392 -120 -220 -88 -462 -229 -650 -380 -91 -73 -283 -261 -340 -333 -19 -24
-40 -48 -45 -55 -72 -78 -235 -340 -302 -486 -24 -52 -48 -103 -54 -114 -6
-10 -7 -22 -2 -26 7 -7 468 -196 498 -204 6 -2 19 -7 30 -11 11 -5 112 -46
225 -91 l205 -82 38 81 c34 71 111 203 127 217 3 3 13 16 22 30 44 70 193 219
293 294 176 132 384 226 575 262 14 2 31 7 38 9 31 11 156 20 282 19 551 -1
1050 -319 1298 -826 l42 -85 477 190 c263 105 480 192 482 194 5 3 -55 141
-95 218 -127 244 -262 426 -468 631 -276 274 -578 462 -947 590 -91 31 -280
83 -324 88 -11 2 -51 8 -90 14 -38 7 -88 14 -110 17 -45 6 -461 16 -466 11z"/>
<path d="M2446 2985 c-147 -40 -267 -138 -334 -272 -93 -186 -65 -414 72 -569
167 -189 439 -231 658 -101 24 14 62 44 86 67 277 268 180 723 -183 860 -73
28 -224 35 -299 15z"/>
<path d="M735 1765 c-400 -160 -479 -195 -477 -210 5 -28 105 -232 154 -315
163 -275 389 -532 628 -716 77 -59 199 -144 206 -144 3 0 18 -8 32 -19 53 -38
260 -140 372 -184 139 -55 257 -91 408 -123 115 -24 136 -27 257 -41 86 -10
428 -10 510 -1 158 18 403 68 480 98 17 7 40 14 52 16 32 6 228 86 308 126
169 84 279 152 409 250 117 90 121 93 257 228 213 212 345 393 475 650 68 136
86 182 77 191 -5 4 -156 67 -338 139 -181 72 -343 138 -360 145 -16 7 -82 33
-145 58 l-115 45 -10 -26 c-30 -80 -152 -287 -200 -338 -5 -6 -30 -35 -55 -64
-59 -70 -194 -187 -279 -244 -77 -50 -250 -140 -291 -150 -3 -1 -35 -12 -71
-23 -66 -22 -133 -39 -192 -48 -17 -3 -56 -9 -84 -14 -61 -9 -305 -7 -378 4
-92 13 -269 63 -355 99 -205 87 -404 232 -551 403 -58 67 -147 203 -194 299
l-50 101 -480 -192z"/>
</g>
</svg>
